<svg width="120" height="40" viewBox="0 0 120 40" fill="none" xmlns="http://www.w3.org/2000/svg">
<path d="M7.69406 39.9803C7.38161 39.9803 7.08869 39.9803 6.77624 39.9606C6.13182 39.9606 5.50692 39.9015 4.88202 39.7834C4.29618 39.6849 3.72986 39.4879 3.2026 39.2122C2.67535 38.9365 2.18714 38.582 1.77705 38.1487C1.34744 37.7154 0.995932 37.223 0.742067 36.6913C0.468674 36.1398 0.292921 35.5687 0.195281 34.9581C0.0976404 34.3082 0.0390558 33.6583 0.0195278 32.9887C0.0195278 32.772 0 32.0433 0 32.0433V7.89759C0 7.89759 -2.98023e-07 7.16888 0.0195278 6.97193C0.0195278 6.32201 0.0781123 5.65239 0.195281 5.02216C0.292921 4.41162 0.468674 3.84047 0.742067 3.28902C1.28885 2.20581 2.14809 1.31955 3.2026 0.768093C3.72986 0.492367 4.29618 0.295421 4.88202 0.196947C5.50692 0.0984737 6.15134 0.0393877 6.79577 0.0196929L7.71359 0H112.286L113.224 0.0196929C113.849 0.0196929 114.493 0.0787789 115.118 0.196947C115.704 0.295421 116.29 0.492367 116.817 0.768093C117.871 1.31955 118.731 2.20581 119.277 3.28902C119.551 3.84047 119.727 4.41162 119.824 5.02216C119.922 5.67208 119.98 6.3417 120 6.99163C120 7.28705 120 7.60217 120 7.91728C120 8.31118 120 8.68538 120 9.05958V30.9404C120 31.3146 120 31.6888 120 32.063C120 32.3978 120 32.7129 120 33.0281C119.98 33.678 119.922 34.3279 119.824 34.9581C119.727 35.5687 119.551 36.1595 119.277 36.711C119.004 37.2427 118.653 37.7351 118.242 38.1684C117.832 38.6017 117.344 38.9562 116.817 39.2319C116.29 39.5076 115.704 39.7046 115.118 39.8031C114.493 39.9015 113.849 39.9606 113.224 39.9803C112.931 39.9803 112.618 40 112.306 40H111.193L7.69406 39.9803Z" fill="#090909"/>
<path d="M106.975 15.1021C106.502 15.1021 106.094 14.9977 105.751 14.7889C105.41 14.578 105.147 14.284 104.962 13.9068C104.778 13.5276 104.687 13.0865 104.687 12.5837C104.687 12.0808 104.778 11.6377 104.962 11.2541C105.147 10.8685 105.405 10.568 105.735 10.3528C106.067 10.1355 106.455 10.0269 106.898 10.0269C107.154 10.0269 107.407 10.0695 107.656 10.1547C107.905 10.2399 108.132 10.3784 108.337 10.5702C108.541 10.7598 108.704 11.0112 108.826 11.3244C108.947 11.6377 109.008 12.0233 109.008 12.4814V12.801H105.224V12.149H108.241C108.241 11.872 108.185 11.6249 108.075 11.4075C107.966 11.1902 107.81 11.0187 107.608 10.893C107.408 10.7673 107.171 10.7044 106.898 10.7044C106.598 10.7044 106.338 10.779 106.119 10.9281C105.901 11.0752 105.734 11.2669 105.617 11.5034C105.5 11.7399 105.441 11.9935 105.441 12.2641V12.6987C105.441 13.0695 105.505 13.3837 105.633 13.6416C105.763 13.8972 105.943 14.0922 106.173 14.2264C106.403 14.3585 106.67 14.4246 106.975 14.4246C107.173 14.4246 107.352 14.3969 107.512 14.3415C107.674 14.284 107.814 14.1987 107.931 14.0858C108.048 13.9707 108.138 13.828 108.202 13.6575L108.931 13.8621C108.854 14.1092 108.725 14.3266 108.544 14.5141C108.363 14.6994 108.14 14.8443 107.873 14.9487C107.607 15.051 107.308 15.1021 106.975 15.1021Z" fill="white"/>
<path d="M101.181 15.1023C100.772 15.1023 100.41 14.999 100.097 14.7923C99.7841 14.5835 99.539 14.2895 99.3622 13.9102C99.1853 13.5288 99.0969 13.0782 99.0969 12.5583C99.0969 12.0427 99.1853 11.5952 99.3622 11.216C99.539 10.8367 99.7851 10.5437 100.1 10.337C100.416 10.1304 100.78 10.027 101.194 10.027C101.513 10.027 101.766 10.0803 101.951 10.1868C102.138 10.2912 102.281 10.4106 102.379 10.5448C102.479 10.6769 102.557 10.7856 102.613 10.8708H102.676V8.45459H103.431V15H102.702V14.2458H102.613C102.557 14.3353 102.478 14.4482 102.376 14.5846C102.274 14.7188 102.128 14.8392 101.938 14.9457C101.749 15.0501 101.496 15.1023 101.181 15.1023ZM101.283 14.4248C101.586 14.4248 101.841 14.3459 102.05 14.1883C102.259 14.0285 102.418 13.8079 102.526 13.5267C102.635 13.2433 102.689 12.9162 102.689 12.5455C102.689 12.179 102.636 11.8584 102.529 11.5835C102.423 11.3065 102.265 11.0913 102.056 10.9379C101.848 10.7824 101.59 10.7046 101.283 10.7046C100.963 10.7046 100.697 10.7866 100.484 10.9507C100.273 11.1126 100.114 11.3331 100.008 11.6123C99.9034 11.8892 99.8512 12.2003 99.8512 12.5455C99.8512 12.8949 99.9045 13.2124 100.011 13.4979C100.12 13.7813 100.279 14.0071 100.49 14.1755C100.703 14.3417 100.968 14.4248 101.283 14.4248Z" fill="white"/>
<path d="M95.9512 15.1021C95.5081 15.1021 95.1192 14.9967 94.7847 14.7857C94.4523 14.5748 94.1924 14.2797 94.0049 13.9004C93.8195 13.5212 93.7268 13.078 93.7268 12.5709C93.7268 12.0595 93.8195 11.6131 94.0049 11.2318C94.1924 10.8504 94.4523 10.5542 94.7847 10.3433C95.1192 10.1323 95.5081 10.0269 95.9512 10.0269C96.3944 10.0269 96.7822 10.1323 97.1146 10.3433C97.4491 10.5542 97.709 10.8504 97.8944 11.2318C98.0819 11.6131 98.1757 12.0595 98.1757 12.5709C98.1757 13.078 98.0819 13.5212 97.8944 13.9004C97.709 14.2797 97.4491 14.5748 97.1146 14.7857C96.7822 14.9967 96.3944 15.1021 95.9512 15.1021ZM95.9512 14.4246C96.2879 14.4246 96.5649 14.3383 96.7822 14.1657C96.9995 13.9931 97.1604 13.7662 97.2648 13.485C97.3692 13.2037 97.4214 12.899 97.4214 12.5709C97.4214 12.2428 97.3692 11.937 97.2648 11.6536C97.1604 11.3703 96.9995 11.1412 96.7822 10.9665C96.5649 10.7918 96.2879 10.7044 95.9512 10.7044C95.6146 10.7044 95.3376 10.7918 95.1203 10.9665C94.9029 11.1412 94.7421 11.3703 94.6377 11.6536C94.5333 11.937 94.4811 12.2428 94.4811 12.5709C94.4811 12.899 94.5333 13.2037 94.6377 13.485C94.7421 13.7662 94.9029 13.9931 95.1203 14.1657C95.3376 14.3383 95.6146 14.4246 95.9512 14.4246Z" fill="white"/>
<path d="M90.9239 15.1021C90.4637 15.1021 90.0674 14.9935 89.735 14.7761C89.4026 14.5588 89.1469 14.2595 88.9679 13.8781C88.789 13.4967 88.6995 13.0609 88.6995 12.5709C88.6995 12.0723 88.7911 11.6323 88.9743 11.2509C89.1597 10.8674 89.4175 10.568 89.7478 10.3528C90.0801 10.1355 90.4679 10.0269 90.9111 10.0269C91.2563 10.0269 91.5674 10.0908 91.8443 10.2186C92.1213 10.3465 92.3483 10.5254 92.5251 10.7555C92.7019 10.9857 92.8117 11.2541 92.8543 11.5609H92.1C92.0425 11.3372 91.9147 11.1391 91.7165 10.9665C91.5205 10.7918 91.2563 10.7044 90.9239 10.7044C90.6299 10.7044 90.372 10.7811 90.1505 10.9345C89.931 11.0858 89.7595 11.2999 89.6359 11.5769C89.5144 11.8518 89.4537 12.1746 89.4537 12.5453C89.4537 12.9246 89.5134 13.2548 89.6327 13.5361C89.7542 13.8173 89.9246 14.0357 90.1441 14.1913C90.3657 14.3468 90.6256 14.4246 90.9239 14.4246C91.1199 14.4246 91.2978 14.3905 91.4576 14.3223C91.6174 14.2541 91.7527 14.1561 91.8635 14.0283C91.9743 13.9004 92.0532 13.747 92.1 13.568H92.8543C92.8117 13.8578 92.7062 14.1188 92.5379 14.3511C92.3717 14.5812 92.1512 14.7644 91.8763 14.9008C91.6036 15.035 91.2861 15.1021 90.9239 15.1021Z" fill="white"/>
<path d="M80.7439 15V8.45459H82.9555C83.4669 8.45459 83.8867 8.54195 84.2148 8.71666C84.5429 8.88925 84.7858 9.12682 84.9435 9.42938C85.1011 9.73193 85.18 10.076 85.18 10.4617C85.18 10.8473 85.1011 11.1893 84.9435 11.4876C84.7858 11.7859 84.544 12.0203 84.218 12.1907C83.892 12.3591 83.4754 12.4432 82.9683 12.4432H81.1786V11.7273H82.9428C83.2922 11.7273 83.5734 11.6762 83.7865 11.5739C84.0017 11.4716 84.1572 11.3267 84.2531 11.1392C84.3511 10.9496 84.4001 10.7238 84.4001 10.4617C84.4001 10.1996 84.3511 9.97057 84.2531 9.77455C84.1551 9.57852 83.9985 9.42725 83.7833 9.32071C83.5681 9.21205 83.2837 9.15771 82.93 9.15771H81.5365V15H80.7439ZM83.8249 12.0597L85.4357 15H84.5152L82.93 12.0597H83.8249Z" fill="white"/>
<path d="M76.2661 12.9547H77.1354L77.8641 13.9135L78.0559 14.1692L79.1425 15.6138H78.2732L77.5573 14.655L77.3783 14.4121L76.2661 12.9547ZM79.411 11.7275C79.411 12.4178 79.2863 13.0144 79.037 13.5172C78.7878 14.0201 78.4458 14.4078 78.0111 14.6806C77.5765 14.9533 77.08 15.0897 76.5218 15.0897C75.9635 15.0897 75.4671 14.9533 75.0324 14.6806C74.5978 14.4078 74.2558 14.0201 74.0065 13.5172C73.7572 13.0144 73.6326 12.4178 73.6326 11.7275C73.6326 11.0371 73.7572 10.4405 74.0065 9.93768C74.2558 9.43484 74.5978 9.04705 75.0324 8.77433C75.4671 8.5016 75.9635 8.36523 76.5218 8.36523C77.08 8.36523 77.5765 8.5016 78.0111 8.77433C78.4458 9.04705 78.7878 9.43484 79.037 9.93768C79.2863 10.4405 79.411 11.0371 79.411 11.7275ZM78.6439 11.7275C78.6439 11.1607 78.5491 10.6824 78.3595 10.2924C78.172 9.90252 77.9174 9.60742 77.5956 9.40714C77.276 9.20685 76.9181 9.10671 76.5218 9.10671C76.1255 9.10671 75.7664 9.20685 75.4447 9.40714C75.1251 9.60742 74.8705 9.90252 74.6809 10.2924C74.4934 10.6824 74.3996 11.1607 74.3996 11.7275C74.3996 12.2942 74.4934 12.7725 74.6809 13.1625C74.8705 13.5524 75.1251 13.8475 75.4447 14.0478C75.7664 14.248 76.1255 14.3482 76.5218 14.3482C76.9181 14.3482 77.276 14.248 77.5956 14.0478C77.9174 13.8475 78.172 13.5524 78.3595 13.1625C78.5491 12.7725 78.6439 12.2942 78.6439 11.7275Z" fill="white"/>
<path d="M68.0747 15.1021C67.6017 15.1021 67.1937 14.9977 66.8507 14.7889C66.5097 14.578 66.2466 14.284 66.0612 13.9068C65.878 13.5276 65.7864 13.0865 65.7864 12.5837C65.7864 12.0808 65.878 11.6377 66.0612 11.2541C66.2466 10.8685 66.5044 10.568 66.8347 10.3528C67.1671 10.1355 67.5548 10.0269 67.998 10.0269C68.2537 10.0269 68.5062 10.0695 68.7555 10.1547C69.0048 10.2399 69.2317 10.3784 69.4362 10.5702C69.6408 10.7598 69.8038 11.0112 69.9252 11.3244C70.0467 11.6377 70.1074 12.0233 70.1074 12.4814V12.801H66.3233V12.149H69.3404C69.3404 11.872 69.285 11.6249 69.1742 11.4075C69.0655 11.1902 68.91 11.0187 68.7075 10.893C68.5073 10.7673 68.2708 10.7044 67.998 10.7044C67.6976 10.7044 67.4377 10.779 67.2182 10.9281C67.0009 11.0752 66.8336 11.2669 66.7164 11.5034C66.5992 11.7399 66.5406 11.9935 66.5406 12.2641V12.6987C66.5406 13.0695 66.6046 13.3837 66.7324 13.6416C66.8624 13.8972 67.0424 14.0922 67.2725 14.2264C67.5026 14.3585 67.77 14.4246 68.0747 14.4246C68.2729 14.4246 68.4519 14.3969 68.6117 14.3415C68.7736 14.284 68.9132 14.1987 69.0303 14.0858C69.1475 13.9707 69.2381 13.828 69.302 13.6575L70.0307 13.8621C69.954 14.1092 69.8251 14.3266 69.644 14.5141C69.4629 14.6994 69.2391 14.8443 68.9728 14.9487C68.7065 15.051 68.4071 15.1021 68.0747 15.1021Z" fill="white"/>
<path d="M61.4535 12.0469V15H60.6992V8.45459H61.4535V10.858H61.5174C61.6325 10.6044 61.805 10.4031 62.0352 10.254C62.2674 10.1027 62.5764 10.027 62.962 10.027C63.2965 10.027 63.5895 10.0941 63.8409 10.2284C64.0923 10.3605 64.2873 10.564 64.4258 10.8388C64.5664 11.1116 64.6367 11.4589 64.6367 11.8807V15H63.8825V11.9319C63.8825 11.5419 63.7813 11.2405 63.5788 11.0274C63.3786 10.8122 63.1005 10.7046 62.7447 10.7046C62.4975 10.7046 62.2759 10.7568 62.0799 10.8612C61.886 10.9656 61.7326 11.1179 61.6197 11.3182C61.5089 11.5185 61.4535 11.7614 61.4535 12.0469Z" fill="white"/>
<path d="M59.4591 10.0907V10.7299H56.915V10.0907H59.4591ZM57.6565 8.91455H58.4108V13.5935C58.4108 13.8066 58.4417 13.9664 58.5035 14.0729C58.5674 14.1773 58.6483 14.2476 58.7464 14.2839C58.8465 14.318 58.952 14.335 59.0628 14.335C59.1459 14.335 59.214 14.3307 59.2673 14.3222C59.3206 14.3116 59.3632 14.303 59.3952 14.2967L59.5486 14.9742C59.4974 14.9934 59.426 15.0126 59.3344 15.0317C59.2428 15.053 59.1267 15.0637 58.9861 15.0637C58.773 15.0637 58.5642 15.0179 58.3596 14.9263C58.1572 14.8347 57.9889 14.6951 57.8547 14.5076C57.7226 14.3201 57.6565 14.0836 57.6565 13.7981V8.91455Z" fill="white"/>
<path d="M50.2826 12.0467V14.9999H49.5283V10.0908H50.257V10.8578H50.3209C50.436 10.6085 50.6107 10.4082 50.8451 10.257C51.0795 10.1036 51.382 10.0269 51.7528 10.0269C52.0851 10.0269 52.376 10.095 52.6253 10.2314C52.8746 10.3656 53.0684 10.5702 53.2069 10.845C53.3454 11.1178 53.4147 11.4629 53.4147 11.8805V14.9999H52.6604V11.9317C52.6604 11.546 52.5603 11.2456 52.36 11.0304C52.1597 10.8131 51.8849 10.7044 51.5354 10.7044C51.2947 10.7044 51.0795 10.7566 50.8898 10.861C50.7023 10.9654 50.5542 11.1178 50.4456 11.318C50.3369 11.5183 50.2826 11.7612 50.2826 12.0467Z" fill="white"/>
<path d="M45.9015 15.1149C45.5904 15.1149 45.3081 15.0563 45.0546 14.9391C44.801 14.8198 44.5997 14.6483 44.4505 14.4246C44.3014 14.1987 44.2268 13.926 44.2268 13.6064C44.2268 13.3252 44.2822 13.0972 44.393 12.9225C44.5038 12.7456 44.6519 12.6071 44.8372 12.507C45.0226 12.4068 45.2272 12.3323 45.4509 12.2832C45.6767 12.2321 45.9037 12.1916 46.1316 12.1618C46.4299 12.1234 46.6718 12.0947 46.8571 12.0755C47.0446 12.0542 47.181 12.019 47.2662 11.97C47.3536 11.921 47.3973 11.8358 47.3973 11.7144V11.6888C47.3973 11.3734 47.311 11.1284 47.1384 10.9537C46.9679 10.779 46.7091 10.6916 46.3618 10.6916C46.0017 10.6916 45.7193 10.7705 45.5148 10.9281C45.3103 11.0858 45.1664 11.2541 45.0833 11.4331L44.3674 11.1774C44.4953 10.8791 44.6657 10.6469 44.8788 10.4807C45.094 10.3124 45.3284 10.1952 45.5819 10.1291C45.8376 10.0609 46.089 10.0269 46.3362 10.0269C46.4939 10.0269 46.675 10.046 46.8795 10.0844C47.0862 10.1206 47.2854 10.1962 47.4772 10.3113C47.6711 10.4264 47.8319 10.6 47.9598 10.8323C48.0876 11.0645 48.1515 11.3756 48.1515 11.7655V14.9999H47.3973V14.3351H47.3589C47.3078 14.4416 47.2225 14.5556 47.1032 14.6771C46.9839 14.7985 46.8252 14.9019 46.627 14.9871C46.4289 15.0723 46.187 15.1149 45.9015 15.1149ZM46.0166 14.4374C46.3149 14.4374 46.5663 14.3788 46.7708 14.2616C46.9775 14.1444 47.1331 13.9931 47.2375 13.8078C47.344 13.6224 47.3973 13.4274 47.3973 13.2229V12.5325C47.3653 12.5709 47.295 12.606 47.1863 12.638C47.0798 12.6678 46.9562 12.6945 46.8156 12.7179C46.6771 12.7392 46.5418 12.7584 46.4097 12.7754C46.2797 12.7903 46.1743 12.8031 46.0933 12.8138C45.8973 12.8394 45.714 12.8809 45.5436 12.9384C45.3752 12.9938 45.2389 13.078 45.1345 13.1909C45.0322 13.3017 44.9811 13.453 44.9811 13.6448C44.9811 13.9068 45.078 14.105 45.2719 14.2392C45.4679 14.3713 45.7162 14.4374 46.0166 14.4374Z" fill="white"/>
<path d="M41.4239 15.1021C40.9637 15.1021 40.5674 14.9935 40.235 14.7761C39.9026 14.5588 39.6469 14.2595 39.4679 13.8781C39.289 13.4967 39.1995 13.0609 39.1995 12.5709C39.1995 12.0723 39.2911 11.6323 39.4743 11.2509C39.6597 10.8674 39.9175 10.568 40.2478 10.3528C40.5801 10.1355 40.9679 10.0269 41.4111 10.0269C41.7563 10.0269 42.0674 10.0908 42.3443 10.2186C42.6213 10.3465 42.8483 10.5254 43.0251 10.7555C43.2019 10.9857 43.3117 11.2541 43.3543 11.5609H42.6C42.5425 11.3372 42.4147 11.1391 42.2165 10.9665C42.0205 10.7918 41.7563 10.7044 41.4239 10.7044C41.1299 10.7044 40.872 10.7811 40.6505 10.9345C40.431 11.0858 40.2595 11.2999 40.1359 11.5769C40.0144 11.8518 39.9537 12.1746 39.9537 12.5453C39.9537 12.9246 40.0134 13.2548 40.1327 13.5361C40.2542 13.8173 40.4246 14.0357 40.6441 14.1913C40.8657 14.3468 41.1256 14.4246 41.4239 14.4246C41.6199 14.4246 41.7978 14.3905 41.9576 14.3223C42.1174 14.2541 42.2527 14.1561 42.3635 14.0283C42.4743 13.9004 42.5532 13.747 42.6 13.568H43.3543C43.3117 13.8578 43.2062 14.1188 43.0379 14.3511C42.8717 14.5812 42.6512 14.7644 42.3763 14.9008C42.1036 15.035 41.7861 15.1021 41.4239 15.1021Z" fill="white"/>
<path d="M37.3723 10.0911C37.3339 9.76722 37.1784 9.5158 36.9057 9.33683C36.6329 9.15785 36.2984 9.06836 35.9021 9.06836C35.6123 9.06836 35.3588 9.11523 35.1414 9.20898C34.9262 9.30273 34.7579 9.43164 34.6365 9.5957C34.5172 9.75977 34.4575 9.9462 34.4575 10.155C34.4575 10.3297 34.499 10.4799 34.5821 10.6056C34.6674 10.7292 34.776 10.8326 34.9081 10.9157C35.0402 10.9966 35.1787 11.0637 35.3236 11.117C35.4685 11.1681 35.6017 11.2097 35.7231 11.2417L36.3879 11.4206C36.5583 11.4654 36.748 11.5272 36.9568 11.606C37.1677 11.6848 37.3691 11.7924 37.5608 11.9288C37.7547 12.063 37.9145 12.2356 38.0402 12.4466C38.1659 12.6575 38.2288 12.9164 38.2288 13.2232C38.2288 13.5769 38.1361 13.8965 37.9508 14.182C37.7675 14.4675 37.499 14.6944 37.1454 14.8627C36.7938 15.0311 36.3666 15.1152 35.8637 15.1152C35.395 15.1152 34.9891 15.0396 34.6461 14.8883C34.3052 14.737 34.0367 14.5261 33.8407 14.2555C33.6468 13.9849 33.537 13.6706 33.5115 13.3127H34.3297C34.351 13.5598 34.4341 13.7644 34.5789 13.9263C34.726 14.0861 34.9113 14.2054 35.1351 14.2843C35.3609 14.361 35.6038 14.3993 35.8637 14.3993C36.1663 14.3993 36.438 14.3503 36.6787 14.2523C36.9195 14.1522 37.1102 14.0137 37.2508 13.8368C37.3914 13.6578 37.4618 13.449 37.4618 13.2104C37.4618 12.9931 37.401 12.8162 37.2796 12.6799C37.1581 12.5435 36.9983 12.4327 36.8002 12.3475C36.602 12.2623 36.3879 12.1877 36.1578 12.1238L35.3524 11.8936C34.841 11.7466 34.4362 11.5368 34.1379 11.264C33.8396 10.9913 33.6905 10.6344 33.6905 10.1934C33.6905 9.82688 33.7895 9.50728 33.9877 9.23455C34.188 8.95969 34.4564 8.74663 34.7931 8.59535C35.1319 8.44194 35.5101 8.36523 35.9277 8.36523C36.3495 8.36523 36.7245 8.44087 37.0527 8.59215C37.3808 8.7413 37.6407 8.94585 37.8325 9.20579C38.0264 9.46573 38.1287 9.76083 38.1393 10.0911H37.3723Z" fill="white"/>
<path d="M99.0127 30.9998V24.4544H100.236V25.5197H100.317C100.453 25.1589 100.676 24.8777 100.986 24.676C101.295 24.4714 101.666 24.3691 102.098 24.3691C102.535 24.3691 102.902 24.4714 103.197 24.676C103.496 24.8805 103.716 25.1618 103.858 25.5197H103.926C104.082 25.1703 104.331 24.8919 104.672 24.6845C105.013 24.4743 105.419 24.3691 105.891 24.3691C106.484 24.3691 106.969 24.5552 107.344 24.9274C107.721 25.2995 107.91 25.8606 107.91 26.6106V30.9998H106.636V26.7299C106.636 26.2868 106.516 25.9657 106.274 25.7669C106.033 25.568 105.744 25.4686 105.409 25.4686C104.994 25.4686 104.672 25.5964 104.442 25.8521C104.212 26.1049 104.096 26.4302 104.096 26.8279V30.9998H102.827V26.649C102.827 26.2939 102.716 26.0083 102.494 25.7924C102.273 25.5765 101.984 25.4686 101.629 25.4686C101.388 25.4686 101.165 25.5325 100.96 25.6603C100.758 25.7853 100.595 25.96 100.47 26.1845C100.348 26.4089 100.287 26.6689 100.287 26.9643V30.9998H99.0127Z" fill="white"/>
<path d="M94.0857 31.1447C93.6709 31.1447 93.2959 31.068 92.9607 30.9146C92.6254 30.7583 92.3598 30.5325 92.1638 30.237C91.9706 29.9416 91.874 29.5794 91.874 29.1504C91.874 28.7811 91.945 28.4771 92.0871 28.2385C92.2291 27.9998 92.4209 27.8109 92.6624 27.6717C92.9039 27.5325 93.1737 27.4274 93.472 27.3564C93.7703 27.2853 94.0743 27.2314 94.384 27.1944C94.776 27.149 95.0942 27.112 95.3385 27.0836C95.5828 27.0524 95.7604 27.0027 95.8712 26.9345C95.982 26.8663 96.0374 26.7555 96.0374 26.6021V26.5723C96.0374 26.2001 95.9323 25.9118 95.722 25.7072C95.5146 25.5027 95.205 25.4004 94.7931 25.4004C94.3641 25.4004 94.026 25.4956 93.7789 25.6859C93.5345 25.8734 93.3655 26.0822 93.2718 26.3123L92.0743 26.0396C92.2164 25.6419 92.4237 25.3208 92.6965 25.0765C92.972 24.8294 93.2888 24.6504 93.6468 24.5396C94.0047 24.426 94.3811 24.3691 94.776 24.3691C95.0374 24.3691 95.3144 24.4004 95.607 24.4629C95.9024 24.5225 96.178 24.6333 96.4337 24.7953C96.6922 24.9572 96.9038 25.1887 97.0686 25.4899C97.2334 25.7882 97.3158 26.176 97.3158 26.6532V30.9998H96.0715V30.1049H96.0203C95.9379 30.2697 95.8144 30.4316 95.6496 30.5907C95.4848 30.7498 95.2732 30.8819 95.0146 30.987C94.7561 31.0922 94.4465 31.1447 94.0857 31.1447ZM94.3627 30.122C94.7149 30.122 95.0161 30.0524 95.2661 29.9132C95.5189 29.774 95.7107 29.5922 95.8414 29.3677C95.9749 29.1404 96.0416 28.8976 96.0416 28.639V27.7953C95.9962 27.8407 95.9081 27.8833 95.7774 27.9231C95.6496 27.96 95.5033 27.9927 95.3385 28.0211C95.1737 28.0467 95.0132 28.0708 94.857 28.0936C94.7007 28.1135 94.57 28.1305 94.4649 28.1447C94.2178 28.176 93.9919 28.2285 93.7874 28.3024C93.5857 28.3762 93.4237 28.4828 93.3016 28.622C93.1823 28.7583 93.1226 28.9402 93.1226 29.1674C93.1226 29.4828 93.2391 29.7214 93.472 29.8833C93.705 30.0424 94.0019 30.122 94.3627 30.122Z" fill="white"/>
<path d="M87.6338 30.9999V24.4545H88.8653V25.4942H88.9335C89.0528 25.142 89.263 24.865 89.5642 24.6633C89.8682 24.4587 90.2119 24.3564 90.5954 24.3564C90.675 24.3564 90.7687 24.3593 90.8767 24.365C90.9875 24.3706 91.0741 24.3778 91.1366 24.3863V25.605C91.0855 25.5908 90.9946 25.5752 90.8639 25.5581C90.7332 25.5383 90.6025 25.5283 90.4719 25.5283C90.1707 25.5283 89.9023 25.5922 89.6665 25.7201C89.4335 25.8451 89.2488 26.0198 89.1125 26.2442C88.9761 26.4658 88.9079 26.7187 88.9079 27.0028V30.9999H87.6338Z" fill="white"/>
<path d="M82.972 33.5907C82.4521 33.5907 82.0046 33.5226 81.6296 33.3862C81.2575 33.2498 80.9535 33.0694 80.7177 32.845C80.4819 32.6206 80.3058 32.3748 80.1893 32.1078L81.2845 31.6561C81.3612 31.7811 81.4634 31.9132 81.5913 32.0524C81.722 32.1944 81.8981 32.3152 82.1197 32.4146C82.3441 32.514 82.6325 32.5637 82.9848 32.5637C83.4677 32.5637 83.8669 32.4458 84.1822 32.21C84.4975 31.9771 84.6552 31.6049 84.6552 31.0936V29.8066H84.5742C84.4975 29.9458 84.3867 30.1007 84.2419 30.2711C84.0998 30.4416 83.9038 30.5893 83.6538 30.7143C83.4038 30.8393 83.0785 30.9018 82.6779 30.9018C82.1609 30.9018 81.695 30.7811 81.2802 30.5396C80.8683 30.2953 80.5416 29.9359 80.3001 29.4615C80.0615 28.9842 79.9421 28.3975 79.9421 27.7015C79.9421 27.0055 80.06 26.4089 80.2958 25.9118C80.5345 25.4146 80.8612 25.0339 81.2759 24.7697C81.6907 24.5027 82.1609 24.3691 82.6865 24.3691C83.0927 24.3691 83.4208 24.4373 83.6708 24.5737C83.9208 24.7072 84.1154 24.8635 84.2546 25.0424C84.3967 25.2214 84.5061 25.3791 84.5828 25.5154H84.6765V24.4544H85.9251V31.1447C85.9251 31.7072 85.7944 32.1689 85.533 32.5297C85.2717 32.8904 84.918 33.1575 84.472 33.3308C84.0288 33.5041 83.5288 33.5907 82.972 33.5907ZM82.9592 29.845C83.3257 29.845 83.6353 29.7598 83.8882 29.5893C84.1438 29.416 84.337 29.1689 84.4677 28.8478C84.6012 28.524 84.668 28.1362 84.668 27.6845C84.668 27.2441 84.6027 26.8564 84.472 26.5211C84.3413 26.1859 84.1495 25.9245 83.8967 25.737C83.6438 25.5467 83.3313 25.4515 82.9592 25.4515C82.5757 25.4515 82.2561 25.551 82.0004 25.7498C81.7447 25.9458 81.5515 26.2129 81.4208 26.551C81.293 26.889 81.2291 27.2669 81.2291 27.6845C81.2291 28.1135 81.2944 28.4899 81.4251 28.8137C81.5558 29.1376 81.749 29.3904 82.0046 29.5723C82.2632 29.7541 82.5813 29.845 82.9592 29.845Z" fill="white"/>
<path d="M75.7543 31.1319C75.1406 31.1319 74.6051 30.9913 74.1477 30.71C73.6903 30.4288 73.3352 30.0353 73.0824 29.5297C72.8295 29.024 72.7031 28.4331 72.7031 27.7569C72.7031 27.0779 72.8295 26.4842 73.0824 25.9757C73.3352 25.4672 73.6903 25.0723 74.1477 24.791C74.6051 24.5098 75.1406 24.3691 75.7543 24.3691C76.3679 24.3691 76.9034 24.5098 77.3608 24.791C77.8182 25.0723 78.1733 25.4672 78.4261 25.9757C78.679 26.4842 78.8054 27.0779 78.8054 27.7569C78.8054 28.4331 78.679 29.024 78.4261 29.5297C78.1733 30.0353 77.8182 30.4288 77.3608 30.71C76.9034 30.9913 76.3679 31.1319 75.7543 31.1319ZM75.7585 30.0623C76.1562 30.0623 76.4858 29.9572 76.7472 29.747C77.0085 29.5368 77.2017 29.2569 77.3267 28.9075C77.4545 28.5581 77.5185 28.1731 77.5185 27.7527C77.5185 27.335 77.4545 26.9515 77.3267 26.6021C77.2017 26.2498 77.0085 25.9672 76.7472 25.7541C76.4858 25.541 76.1562 25.4345 75.7585 25.4345C75.358 25.4345 75.0256 25.541 74.7614 25.7541C74.5 25.9672 74.3054 26.2498 74.1776 26.6021C74.0526 26.9515 73.9901 27.335 73.9901 27.7527C73.9901 28.1731 74.0526 28.5581 74.1776 28.9075C74.3054 29.2569 74.5 29.5368 74.7614 29.747C75.0256 29.9572 75.358 30.0623 75.7585 30.0623Z" fill="white"/>
<path d="M68.626 30.9999V24.4545H69.8575V25.4942H69.9257C70.045 25.142 70.2552 24.865 70.5564 24.6633C70.8604 24.4587 71.2041 24.3564 71.5876 24.3564C71.6672 24.3564 71.7609 24.3593 71.8689 24.365C71.9797 24.3706 72.0663 24.3778 72.1288 24.3863V25.605C72.0777 25.5908 71.9868 25.5752 71.8561 25.5581C71.7254 25.5383 71.5947 25.5283 71.464 25.5283C71.1629 25.5283 70.8944 25.5922 70.6586 25.7201C70.4257 25.8451 70.241 26.0198 70.1047 26.2442C69.9683 26.4658 69.9001 26.7187 69.9001 27.0028V30.9999H68.626Z" fill="white"/>
<path d="M61.0525 31.0002V22.2729H64.1633C64.8423 22.2729 65.4048 22.3965 65.8508 22.6437C66.2968 22.8908 66.6306 23.2289 66.8522 23.6579C67.0738 24.084 67.1846 24.5641 67.1846 25.0982C67.1846 25.6352 67.0724 26.1181 66.8479 26.5471C66.6264 26.9732 66.2911 27.3113 65.8423 27.5613C65.3962 27.8085 64.8352 27.932 64.159 27.932H62.0198V26.8156H64.0397C64.4687 26.8156 64.8167 26.7417 65.0837 26.594C65.3508 26.4434 65.5468 26.2389 65.6718 25.9803C65.7968 25.7218 65.8593 25.4278 65.8593 25.0982C65.8593 24.7687 65.7968 24.4761 65.6718 24.2204C65.5468 23.9647 65.3494 23.7644 65.0795 23.6195C64.8124 23.4747 64.4602 23.4022 64.0227 23.4022H62.3693V31.0002H61.0525Z" fill="white"/>
<path d="M54.7862 31V24.4546H56.0603V31H54.7862ZM55.4297 23.4446C55.2081 23.4446 55.0177 23.3708 54.8586 23.2231C54.7024 23.0725 54.6243 22.8935 54.6243 22.6861C54.6243 22.4759 54.7024 22.2969 54.8586 22.1492C55.0177 21.9986 55.2081 21.9233 55.4297 21.9233C55.6513 21.9233 55.8402 21.9986 55.9964 22.1492C56.1555 22.2969 56.2351 22.4759 56.2351 22.6861C56.2351 22.8935 56.1555 23.0725 55.9964 23.2231C55.8402 23.3708 55.6513 23.4446 55.4297 23.4446Z" fill="white"/>
<path d="M48.8884 27.1135V30.9998H47.6143V24.4544H48.8373V25.5197H48.9182C49.0688 25.1731 49.3046 24.8947 49.6256 24.6845C49.9495 24.4743 50.3572 24.3691 50.8486 24.3691C51.2947 24.3691 51.6853 24.4629 52.0205 24.6504C52.3557 24.835 52.6157 25.1106 52.8003 25.4771C52.985 25.8436 53.0773 26.2967 53.0773 26.8365V30.9998H51.8032V26.9899C51.8032 26.5154 51.6796 26.1447 51.4324 25.8777C51.1853 25.6078 50.8458 25.4728 50.414 25.4728C50.1185 25.4728 49.8557 25.5368 49.6256 25.6646C49.3983 25.7924 49.218 25.9799 49.0844 26.2271C48.9537 26.4714 48.8884 26.7669 48.8884 27.1135Z" fill="white"/>
<path d="M44.626 31V24.4546H45.9002V31H44.626ZM45.2695 23.4446C45.0479 23.4446 44.8576 23.3708 44.6985 23.2231C44.5422 23.0725 44.4641 22.8935 44.4641 22.6861C44.4641 22.4759 44.5422 22.2969 44.6985 22.1492C44.8576 21.9986 45.0479 21.9233 45.2695 21.9233C45.4911 21.9233 45.68 21.9986 45.8363 22.1492C45.9954 22.2969 46.0749 22.4759 46.0749 22.6861C46.0749 22.8935 45.9954 23.0725 45.8363 23.2231C45.68 23.3708 45.4911 23.4446 45.2695 23.4446Z" fill="white"/>
<path d="M33.9587 22.2729H35.5568L38.3352 29.057H38.4374L41.2158 22.2729H42.8139V31.0002H41.561V24.6849H41.48L38.9062 30.9874H37.8664L35.2925 24.6806H35.2116V31.0002H33.9587V22.2729Z" fill="white"/>
<g clip-path="url(#clip0_19_1865)">
<path d="M28 26.85C28 28.5898 26.5897 30 24.85 30H10.15C8.41022 30 7 28.5898 7 26.85V12.15C7 10.4103 8.41029 9 10.15 9H24.85C26.5897 9 28 10.4103 28 12.15V26.85Z" fill="#2DC100"/>
<path d="M21.0561 16.8315C19.3612 16.9201 17.8873 17.4339 16.6908 18.5947C15.4818 19.7675 14.9299 21.2046 15.0808 22.9861C14.4183 22.904 13.8149 22.8137 13.208 22.7626C12.9985 22.745 12.7498 22.77 12.5722 22.8702C11.983 23.2027 11.4181 23.5781 10.7485 23.9966C10.8714 23.441 10.9509 22.9544 11.0917 22.4864C11.1952 22.1424 11.1472 21.951 10.8304 21.727C8.79574 20.2905 7.9381 18.1407 8.57993 15.9275C9.17374 13.88 10.632 12.6382 12.6134 11.9909C15.3178 11.1075 18.3572 12.0087 20.0017 14.1558C20.5956 14.9314 20.9598 15.802 21.0561 16.8315ZM13.2555 16.1419C13.2711 15.7371 12.9203 15.3724 12.5037 15.3602C12.0771 15.3477 11.7263 15.6736 11.7138 16.094C11.7012 16.52 12.0271 16.8614 12.4567 16.8723C12.8827 16.8831 13.2398 16.5567 13.2555 16.1419ZM17.3254 15.3599C16.9072 15.3676 16.5538 15.7238 16.5613 16.1302C16.5689 16.5514 16.9155 16.881 17.3455 16.8758C17.7767 16.8706 18.1036 16.5376 18.0996 16.1074C18.096 15.6852 17.7509 15.3521 17.3254 15.3599Z" fill="white"/>
<path d="M24.8639 27.3982C24.3272 27.1593 23.8349 26.8007 23.3108 26.746C22.7886 26.6914 22.2398 26.9927 21.6935 27.0485C20.0295 27.2188 18.5388 26.755 17.3096 25.6183C14.9718 23.456 15.3058 20.1405 18.0106 18.3685C20.4144 16.7937 23.9399 17.3187 25.6347 19.5038C27.1137 21.4106 26.9399 23.9418 25.1343 25.5437C24.6119 26.0073 24.4238 26.3888 24.7591 27C24.8209 27.1128 24.828 27.2557 24.8639 27.3982ZM18.7547 21.4833C19.0964 21.4837 19.3777 21.2163 19.3907 20.8788C19.4043 20.5215 19.117 20.2218 18.7592 20.2204C18.405 20.2188 18.1083 20.5226 18.1206 20.8746C18.1322 21.2109 18.4155 21.4829 18.7547 21.4833ZM22.693 20.2218C22.3615 20.2195 22.0798 20.4908 22.0663 20.8258C22.052 21.184 22.3303 21.4781 22.6848 21.479C23.0277 21.4802 23.2986 21.2209 23.311 20.8797C23.3243 20.5207 23.0458 20.2242 22.693 20.2218Z" fill="white"/>
</g>
<defs>
<clipPath id="clip0_19_1865">
<rect width="21" height="21" fill="white" transform="translate(7 9)"/>
</clipPath>
</defs>
</svg>
